<svg width="2904" height="1965" xmlns="http://www.w3.org/2000/svg" xmlns:xlink="http://www.w3.org/1999/xlink" xml:space="preserve" overflow="hidden"><defs><clipPath id="clip0"><rect x="366" y="139" width="2904" height="1965"/></clipPath></defs><g clip-path="url(#clip0)" transform="translate(-366 -139)"><path d="M1627.5 776.019C1627.5 714.981 1676.99 665.5 1738.04 665.5L2180.19 665.5C2241.23 665.5 2290.72 714.981 2290.72 776.019 2290.98 952.27 2291.24 1128.52 2291.5 1304.77 2291.24 1482.17 2290.98 1659.58 2290.72 1836.98 2290.72 1898.02 2241.23 1947.5 2180.19 1947.5L1738.04 1947.5C1676.99 1947.5 1627.5 1898.02 1627.5 1836.98L1627.5 776.019Z" stroke="#595959" stroke-width="9.16667" stroke-linejoin="round" stroke-miterlimit="10" fill="none" fill-rule="evenodd"/><path d="M372.5 887C372.5 838.123 432.718 798.5 507 798.5 581.282 798.5 641.5 838.123 641.5 887 641.5 935.877 581.282 975.5 507 975.5 432.718 975.5 372.5 935.877 372.5 887Z" stroke="#595959" stroke-width="9.16667" stroke-linejoin="round" stroke-miterlimit="10" fill="none" fill-rule="evenodd"/><text font-family="Times New Roman,Times New Roman_MSFontService,sans-serif" font-weight="400" font-size="64" transform="matrix(1 0 0 1 404.831 910)">Healthy</text><path d="M1778.5 887C1778.5 838.123 1838.72 798.5 1913 798.5 1987.28 798.5 2047.5 838.123 2047.5 887 2047.5 935.877 1987.28 975.5 1913 975.5 1838.72 975.5 1778.5 935.877 1778.5 887Z" stroke="#595959" stroke-width="9.16667" stroke-linejoin="round" stroke-miterlimit="10" fill="#FFFFFF" fill-rule="evenodd"/><text font-family="Times New Roman,Times New Roman_MSFontService,sans-serif" font-weight="400" font-size="55" transform="matrix(1 0 0 1 1833.96 906)">LC I</text><text font-family="Times New Roman,Times New Roman_MSFontService,sans-serif" font-weight="400" font-size="55" transform="matrix(1 0 0 1 1936.51 906)">-</text><text font-family="Times New Roman,Times New Roman_MSFontService,sans-serif" font-weight="400" font-size="55" transform="matrix(1 0 0 1 1954.85 906)">II</text><path d="M1778.5 1306.5C1778.5 1257.9 1838.72 1218.5 1913 1218.5 1987.28 1218.5 2047.5 1257.9 2047.5 1306.5 2047.5 1355.1 1987.28 1394.5 1913 1394.5 1838.72 1394.5 1778.5 1355.1 1778.5 1306.5Z" stroke="#595959" stroke-width="9.16667" stroke-linejoin="round" stroke-miterlimit="10" fill="#FFFFFF" fill-rule="evenodd"/><text font-family="Times New Roman,Times New Roman_MSFontService,sans-serif" font-weight="400" font-size="55" transform="matrix(1 0 0 1 1830.81 1326)">LC IIIa</text><path d="M1778.5 1738C1778.5 1689.12 1838.72 1649.5 1913 1649.5 1987.28 1649.5 2047.5 1689.12 2047.5 1738 2047.5 1786.88 1987.28 1826.5 1913 1826.5 1838.72 1826.5 1778.5 1786.88 1778.5 1738Z" stroke="#595959" stroke-width="9.16667" stroke-linejoin="round" stroke-miterlimit="10" fill="#FFFFFF" fill-rule="evenodd"/><text font-family="Times New Roman,Times New Roman_MSFontService,sans-serif" font-weight="400" font-size="55" transform="matrix(1 0 0 1 1791.28 1758)">LC IIIb</text><text font-family="Times New Roman,Times New Roman_MSFontService,sans-serif" font-weight="400" font-size="55" transform="matrix(1 0 0 1 1958 1758)">-</text><text font-family="Times New Roman,Times New Roman_MSFontService,sans-serif" font-weight="400" font-size="55" transform="matrix(1 0 0 1 1976.33 1758)">IV</text><path d="M2768.5 1306.5C2768.5 1257.9 2828.72 1218.5 2903 1218.5 2977.28 1218.5 3037.5 1257.9 3037.5 1306.5 3037.5 1355.1 2977.28 1394.5 2903 1394.5 2828.72 1394.5 2768.5 1355.1 2768.5 1306.5Z" stroke="#595959" stroke-width="4.58333" stroke-linejoin="round" stroke-miterlimit="10" fill="#953735" fill-rule="evenodd"/><text fill="#FFFFFF" font-family="Times New Roman,Times New Roman_MSFontService,sans-serif" font-weight="400" font-size="64" transform="matrix(1 0 0 1 2784.11 1330)">LC death</text><path d="M2768.5 1738C2768.5 1689.12 2828.72 1649.5 2903 1649.5 2977.28 1649.5 3037.5 1689.12 3037.5 1738 3037.5 1786.88 2977.28 1826.5 2903 1826.5 2828.72 1826.5 2768.5 1786.88 2768.5 1738Z" stroke="#595959" stroke-width="4.58333" stroke-linejoin="round" stroke-miterlimit="10" fill="#7F7F7F" fill-rule="evenodd"/><text fill="#FFFFFF" font-family="Times New Roman,Times New Roman_MSFontService,sans-serif" font-weight="400" font-size="64" transform="matrix(1 0 0 1 2829.66 1723)">Other</text><text fill="#FFFFFF" font-family="Times New Roman,Times New Roman_MSFontService,sans-serif" font-weight="400" font-size="64" transform="matrix(1 0 0 1 2833.09 1800)">death</text><path d="M2047 886C2091.25 886 2135.49 990.563 2135.49 1095.13 2135.49 1199.69 2213.21 1304.25 2290.92 1304.25" stroke="#C0504D" stroke-width="10.3125" stroke-linejoin="round" stroke-miterlimit="10" fill="none" fill-rule="evenodd"/><path d="M0 0C90.1538 0 180.308 108.375 180.308 216.75 180.308 325.126 212.115 433.501 243.923 433.501" stroke="#C0504D" stroke-width="10.3125" stroke-linejoin="round" stroke-miterlimit="10" fill="none" fill-rule="evenodd" transform="matrix(1 0 0 -1 2047 1737.5)"/><path d="M0 0 243.923 1.72904" stroke="#C0504D" stroke-width="10.3125" stroke-linejoin="round" stroke-miterlimit="10" fill="none" fill-rule="evenodd" transform="matrix(1 0 0 -1 2047 1305.73)"/><path d="M2047 886C2086.54 886 2126.08 1098.94 2126.08 1311.88 2126.08 1524.82 2208.5 1737.75 2290.92 1737.75" stroke="#7F7F7F" stroke-width="10.3125" stroke-linejoin="round" stroke-miterlimit="10" fill="none" fill-rule="evenodd"/><path d="M2047 1306C2086.54 1306 2126.08 1413.94 2126.08 1521.89 2126.08 1629.83 2208.5 1737.77 2290.92 1737.77" stroke="#7F7F7F" stroke-width="10.3125" stroke-linejoin="round" stroke-miterlimit="10" fill="none" fill-rule="evenodd"/><path d="M2047 1738 2290.92 1738" stroke="#7F7F7F" stroke-width="10.3125" stroke-linejoin="round" stroke-miterlimit="10" fill="none" fill-rule="evenodd"/><path d="M2291 1732.84 2744.61 1732.84 2744.61 1743.16 2291 1743.16ZM2716.27 1715.5 2754.84 1738 2716.27 1760.5C2713.81 1761.94 2710.65 1761.11 2709.22 1758.65 2707.78 1756.19 2708.61 1753.03 2711.07 1751.59L2742.01 1733.55 2742.01 1742.45 2711.07 1724.41C2708.61 1722.97 2707.78 1719.82 2709.22 1717.36 2710.65 1714.9 2713.81 1714.06 2716.27 1715.5Z" fill="#7F7F7F"/><path d="M1916.94 975.5 1916.94 1211.84 1910.06 1211.84 1910.06 975.5ZM1932.51 1186.07 1913.5 1218.66 1894.49 1186.07C1893.53 1184.43 1894.09 1182.33 1895.73 1181.37 1897.37 1180.42 1899.47 1180.97 1900.43 1182.61L1916.47 1210.11 1910.53 1210.11 1926.57 1182.61C1927.53 1180.97 1929.63 1180.42 1931.27 1181.37 1932.91 1182.33 1933.47 1184.43 1932.51 1186.07Z" fill="#595959"/><path d="M1916.94 1394.5 1916.94 1642.63 1910.06 1642.63 1910.06 1394.5ZM1932.51 1616.86 1913.5 1649.45 1894.49 1616.86C1893.53 1615.22 1894.09 1613.12 1895.73 1612.16 1897.37 1611.21 1899.47 1611.76 1900.43 1613.4L1916.47 1640.9 1910.53 1640.9 1926.57 1613.4C1927.53 1611.76 1929.63 1611.21 1931.27 1612.16 1932.91 1613.12 1933.47 1615.22 1932.51 1616.86Z" fill="#595959"/><path d="M1916.64 977.27 1915.39 978.195C1915.22 978.317 1915.04 978.423 1914.86 978.514L1912.37 979.729 1908.79 981.37 1904.21 983.545 1898.71 986.387 1892.36 990.075 1885.09 994.821 1876.94 1000.69 1868.06 1007.95 1863.37 1012.1 1858.42 1016.64 1853.4 1021.64 1848.11 1027.05 1842.67 1032.95 1837.09 1039.31 1831.38 1046.14 1825.55 1053.48 1819.53 1061.36 1813.41 1069.81 1807.16 1078.85 1800.81 1088.47 1794.35 1098.74 1787.77 1109.6 1784.52 1115.42 1781.09 1121.93 1777.41 1129.13 1773.65 1136.94 1769.83 1145.34 1765.96 1154.31 1762.09 1163.78 1758.23 1173.82 1754.44 1184.35 1750.78 1195.36 1747.3 1206.78 1744 1218.62 1740.89 1230.94 1738.07 1243.58 1735.62 1256.55 1733.45 1269.86 1731.65 1283.5 1730.32 1297.37 1729.46 1311.49 1729.07 1325.87 1729.27 1340.45 1730 1355.24 1731.37 1370.17 1733.39 1385.21 1736.17 1400.37 1739.58 1415.6 1743.82 1430.95 1748.87 1446.25 1754.8 1461.62 1761.61 1477 1769.28 1492.34 1778.01 1507.64 1787.44 1520.46 1797.58 1533.17 1808.08 1545.62 1818.9 1557.64 1829.73 1569.19 1840.6 1580.14 1851.29 1590.58 1861.58 1600.33 1871.44 1609.3 1880.71 1617.55 1889.17 1624.9 1896.71 1631.38 1903.22 1636.85 1908.54 1641.31 1909.78 1642.34 1905.38 1647.62 1904.13 1646.58 1898.8 1642.11 1892.23 1636.59 1884.67 1630.09 1876.14 1622.69 1866.81 1614.38 1856.85 1605.32 1846.49 1595.5 1835.72 1584.98 1824.72 1573.89 1813.79 1562.24 1802.83 1550.06 1792.2 1537.46 1781.89 1524.53 1772.04 1511.05 1763.13 1495.42 1755.32 1479.78 1748.38 1464.09 1742.34 1448.4 1737.2 1432.78 1732.88 1417.11 1729.41 1401.61 1726.57 1386.12 1724.53 1370.8 1723.13 1355.58 1722.4 1340.55 1722.19 1325.68 1722.59 1311.07 1723.47 1296.71 1724.83 1282.6 1726.67 1268.76 1728.86 1255.27 1731.36 1242.09 1734.22 1229.26 1737.38 1216.78 1740.72 1204.78 1744.26 1193.19 1747.97 1182.02 1751.81 1171.35 1755.72 1161.18 1759.64 1151.58 1763.57 1142.49 1767.45 1133.96 1771.29 1126 1775.01 1118.72 1778.52 1112.07 1781.89 1106.03 1788.53 1095.07 1795.07 1084.68 1801.51 1074.94 1807.84 1065.78 1814.07 1057.19 1820.17 1049.2 1826.11 1041.73 1831.92 1034.78 1837.62 1028.28 1843.19 1022.24 1848.55 1016.77 1853.77 1011.57 1858.82 1006.95 1863.71 1002.63 1872.92 995.114 1881.33 989.061 1888.91 984.129 1895.55 980.278 1901.26 977.334 1905.93 975.119 1909.35 973.552 1911.84 972.337 1911.31 972.656 1912.57 971.731ZM1900.45 1613.76 1912.75 1649.43 1875.65 1642.58C1873.78 1642.23 1872.55 1640.44 1872.89 1638.57 1873.24 1636.71 1875.03 1635.47 1876.9 1635.82L1908.2 1641.6 1904.33 1646.1 1893.95 1616C1893.33 1614.21 1894.29 1612.25 1896.08 1611.63 1897.88 1611.01 1899.83 1611.97 1900.45 1613.76Z" fill="#595959"/><path d="M641 881.989 1770.39 881.99 1770.39 890.011 641 890.01ZM1744.92 866.494 1778.36 886 1744.92 905.506C1743 906.622 1740.55 905.976 1739.43 904.063 1738.32 902.149 1738.96 899.694 1740.88 898.578L1768.38 882.536 1768.38 889.464 1740.88 873.423C1738.96 872.307 1738.32 869.851 1739.43 867.938 1740.55 866.025 1743 865.378 1744.92 866.494Z"/><path d="M516.253 980.32 515.6 982.195 514.772 984.487 513.938 987.054 513.029 990.09 512.038 993.495 510.914 997.368 508.558 1006.05 505.945 1016.13 503.144 1027.52 500.151 1040.06 497.167 1053.67 494.048 1068.39 490.933 1083.97 487.881 1100.42 484.889 1117.62 481.957 1135.46 479.281 1153.89 476.724 1172.85 474.42 1192.16 470.743 1231.68 469.439 1251.64 468.506 1271.69 468.072 1291.65 468.135 1311.55 468.696 1331.2 469.878 1350.57 471.619 1369.57 474.039 1388.04 477.199 1405.93 481.099 1423.18 485.736 1439.67 491.222 1455.3 497.503 1470.06 504.732 1483.69 515.259 1504.3 528.188 1525.81 543.681 1548.35 561.688 1571.94 582.076 1596.3 604.785 1621.37 629.749 1647.02 656.904 1673.11 686.183 1699.46 717.529 1726 750.817 1752.62 785.976 1779.11 822.95 1805.42 861.67 1831.36 902.078 1856.86 944.045 1881.74 987.509 1905.87 1032.47 1929.13 1078.8 1951.45 1126.38 1972.65 1175.27 1992.6 1225.27 2011.18 1276.34 2028.32 1328.39 2043.78 1381.38 2057.49 1435.24 2069.33 1489.9 2079.18 1545.24 2086.84 1601.27 2092.32 1657.78 2095.37 1714.85 2095.93 1772.29 2093.8 1818.79 2092.87 1864.89 2090.87 1910.73 2087.81 1956.27 2083.76 2046.08 2072.89 2133.55 2058.85 2218.35 2042.07 2299.78 2023.09 2339 2012.99 2377.25 2002.45 2414.37 1991.59 2450.32 1980.54 2484.94 1969.25 2518.33 1957.89 2550.21 1946.47 2580.72 1935.06 2609.65 1923.64 2636.98 1912.42 2662.6 1901.38 2686.47 1890.6 2708.46 1880.13 2728.64 1870.04 2746.81 1860.4 2762.9 1851.26 2776.91 1842.7 2788.69 1834.74 2798.21 1827.55 2799.4 1826.47 2804.73 1832.46 2803.04 1833.95 2793.18 1841.39 2781.09 1849.55 2766.85 1858.24 2750.57 1867.48 2732.23 1877.21 2711.91 1887.37 2689.78 1897.9 2665.77 1908.75 2640.02 1919.83 2612.6 1931.11 2583.53 1942.57 2552.91 1954.03 2520.92 1965.48 2487.43 1976.88 2452.68 1988.21 2416.63 1999.29 2379.38 2010.18 2341 2020.76 2301.6 2030.91 2219.9 2049.93 2134.82 2066.77 2047.04 2080.86 1956.98 2091.74 1911.27 2095.81 1865.24 2098.88 1818.96 2100.88 1772.59 2101.82 1714.77 2103.95 1657.35 2103.38 1600.48 2100.3 1544.14 2094.79 1488.48 2087.07 1433.51 2077.17 1379.37 2065.26 1326.11 2051.47 1273.79 2035.93 1222.48 2018.7 1172.23 2000.03 1123.12 1979.98 1075.32 1958.68 1028.78 1936.25 983.616 1912.88 939.955 1888.64 897.797 1863.64 857.206 1838.02 818.3 1811.95 781.149 1785.52 745.808 1758.88 712.346 1732.12 680.817 1705.42 651.346 1678.89 624.001 1652.61 598.84 1626.75 575.924 1601.45 555.312 1576.81 537.069 1552.9 521.312 1529.94 508.116 1507.95 497.643 1487.44 490.122 1473.19 483.653 1457.95 478.014 1441.83 473.276 1424.95 469.301 1407.32 466.086 1389.08 463.631 1370.3 461.872 1351.06 460.679 1331.43 460.115 1311.58 460.053 1291.48 460.494 1271.31 461.436 1251.11 462.757 1230.94 466.455 1191.21 468.776 1171.78 471.344 1152.74 474.043 1134.16 476.986 1116.25 479.994 1098.96 483.068 1082.4 486.202 1066.73 489.333 1051.95 492.349 1038.19 495.356 1025.6 498.18 1014.12 500.817 1003.95 503.211 995.132 504.337 991.255 505.346 987.785 506.312 984.571 507.228 981.763 508.025 979.555 508.679 977.68ZM2770.07 1831.83 2808.01 1824.17 2796 1860.98C2795.32 1863.08 2793.05 1864.23 2790.95 1863.54 2788.84 1862.86 2787.69 1860.59 2788.38 1858.49L2798.26 1828.22 2802.86 1833.4 2771.65 1839.7C2769.48 1840.13 2767.37 1838.73 2766.93 1836.56 2766.49 1834.39 2767.9 1832.27 2770.07 1831.83Z"/><text font-family="Arial,Arial_MSFontService,sans-serif" font-weight="400" font-size="83" transform="matrix(1 0 0 1 1687.32 632)">Lung cancer (LC)</text><path d="M3073.12 884.792 3110.16 940.98 3128.37 969.069 3146.08 997.174 3163.17 1025.23 3179.59 1053.29 3195.07 1081.24 3209.56 1109.22 3222.87 1137.08 3234.81 1164.98 3240.24 1178.92 3245.27 1192.75 3249.93 1206.66 3254.09 1220.54 3257.87 1234.32 3261.15 1248.14 3263.99 1261.94 3266.27 1275.72 3268.04 1289.42 3269.25 1303.15 3269.94 1316.86 3270.01 1330.54 3269.51 1344.15 3268.37 1357.77 3266.73 1371.36 3264.52 1384.9 3261.81 1398.36 3258.59 1411.81 3254.86 1425.2 3250.64 1438.58 3246.04 1451.93 3240.93 1465.25 3235.46 1478.53 3229.6 1491.75 3216.79 1518.13 3202.59 1544.47 3187.27 1570.65 3170.9 1596.76 3153.59 1622.84 3135.61 1648.84 3117.01 1674.78 3097.98 1700.69 3063.97 1746.05 3057.55 1741.24 3091.52 1695.94 3110.49 1670.1 3129.01 1644.28 3146.91 1618.41 3164.1 1592.49 3180.35 1566.6 3195.53 1540.66 3209.58 1514.62 3222.27 1488.5 3228.04 1475.47 3233.44 1462.38 3238.46 1449.32 3242.99 1436.17 3247.14 1423.05 3250.79 1409.94 3253.94 1396.77 3256.6 1383.6 3258.77 1370.39 3260.38 1357.1 3261.49 1343.85 3261.99 1330.58 3261.93 1317.27 3261.25 1303.85 3260.08 1290.45 3258.36 1277.03 3256.13 1263.56 3253.35 1249.99 3250.13 1236.43 3246.41 1222.84 3242.32 1209.21 3237.73 1195.5 3232.76 1181.83 3227.44 1168.14 3215.63 1140.54 3202.44 1112.91 3188.05 1085.13 3172.66 1057.34 3156.33 1029.4 3139.29 1001.45 3121.63 973.431 3103.46 945.395 3066.42 889.207ZM3091.65 1734.96 3055.99 1750.01 3060.44 1711.56C3060.69 1709.36 3062.68 1707.78 3064.88 1708.04 3067.08 1708.29 3068.66 1710.28 3068.41 1712.48L3064.75 1744.11 3059.2 1739.95 3088.53 1727.57C3090.58 1726.71 3092.93 1727.67 3093.79 1729.71 3094.65 1731.75 3093.69 1734.1 3091.65 1734.96Z"/><path d="M2291 1298.84 2744.61 1298.84 2744.61 1309.16 2291 1309.16ZM2716.27 1281.5 2754.84 1304 2716.27 1326.5C2713.81 1327.94 2710.65 1327.1 2709.22 1324.65 2707.78 1322.19 2708.61 1319.03 2711.07 1317.59L2742.01 1299.55 2742.01 1308.45 2711.07 1290.41C2708.61 1288.97 2707.78 1285.82 2709.22 1283.36 2710.65 1280.9 2713.81 1280.06 2716.27 1281.5Z" fill="#C0504D"/><path d="M2046 1727C2098.01 1600.72 2150.01 1474.44 2167.5 1351.58 2184.99 1228.73 2130.68 1067.97 2150.93 989.87 2171.18 911.773 2230.09 897.386 2289 883" stroke="#4BACC6" stroke-width="10.3125" stroke-linejoin="round" stroke-miterlimit="10" fill="none" fill-rule="evenodd"/><path d="M2051 1307C2077.3 1261.44 2103.61 1215.88 2116.76 1153.58 2129.91 1091.28 2100.54 978.307 2129.91 933.211 2159.29 888.114 2226.14 885.557 2293 883" stroke="#4BACC6" stroke-width="10.3125" stroke-linejoin="round" stroke-miterlimit="10" fill="none" fill-rule="evenodd"/><path d="M2050 883 2293.15 883" stroke="#4BACC6" stroke-width="10.3125" stroke-linejoin="round" stroke-miterlimit="10" fill="none" fill-rule="evenodd"/><path d="M0.0213701-5.15621 451.229-3.28615 451.186 7.02626-0.0213701 5.15621ZM422.963-20.7479 461.442 1.91247 422.776 24.2531C420.31 25.6778 417.157 24.8339 415.732 22.3682 414.307 19.9024 415.151 16.7486 417.617 15.324L448.629-2.59453 448.592 6.31311 417.73-11.8618C415.276-13.3069 414.458-16.4676 415.903-18.9214 417.348-21.3752 420.509-22.193 422.963-20.7479Z" fill="#4BACC6" transform="matrix(1 0 0 -1 2293 882.912)"/><rect x="739.5" y="819.5" width="299" height="127" stroke="#595959" stroke-width="4.58333" stroke-linejoin="round" stroke-miterlimit="10" stroke-dasharray="18.3333 13.75" fill="#F2F2F2"/><text font-family="Times New Roman,Times New Roman_MSFontService,sans-serif" font-weight="400" font-size="64" transform="matrix(1 0 0 1 758.349 906)">Smoking?</text><rect x="1172.5" y="817.5" width="299" height="128" stroke="#595959" stroke-width="4.58333" stroke-linejoin="round" stroke-miterlimit="10" stroke-dasharray="18.3333 13.75" fill="#F2F2F2"/><text font-family="Times New Roman,Times New Roman_MSFontService,sans-serif" font-weight="400" font-size="64" transform="matrix(1 0 0 1 1200.18 904)">Quitting?</text><rect x="2762.5" y="811.5" width="299" height="127" stroke="#595959" stroke-width="4.58333" stroke-linejoin="round" stroke-miterlimit="10" stroke-dasharray="18.3333 13.75" fill="#DBEEF4"/><text font-family="Times New Roman,Times New Roman_MSFontService,sans-serif" font-weight="400" font-size="64" transform="matrix(1 0 0 1 2803.23 898)">Survival</text><text font-family="Calibri,Calibri_MSFontService,sans-serif" font-weight="400" font-size="110" transform="matrix(1 0 0 1 688.77 275)">Smoking </text><text font-family="Calibri,Calibri_MSFontService,sans-serif" font-weight="400" font-size="110" transform="matrix(1 0 0 1 670.666 407)">cessation</text><text font-family="Calibri,Calibri_MSFontService,sans-serif" font-weight="400" font-size="110" transform="matrix(1 0 0 1 582.437 539)">interventions</text><text font-family="Calibri,Calibri_MSFontService,sans-serif" font-weight="400" font-size="110" transform="matrix(1 0 0 1 2446.92 420)">Lung</text><text font-family="Calibri,Calibri_MSFontService,sans-serif" font-weight="400" font-size="110" transform="matrix(1 0 0 1 2685.26 420)">cancer</text><text font-family="Calibri,Calibri_MSFontService,sans-serif" font-weight="400" font-size="110" transform="matrix(1 0 0 1 2499.61 552)">screening</text><path d="M1226.3 582.808 1299.82 674.061 1324.64 654.067 1315 743.684 1225.38 734.044 1250.2 714.05 1176.67 622.796Z" stroke="#385D8A" stroke-width="9.16667" stroke-miterlimit="8" fill="#4F81BD" fill-rule="evenodd"/><path d="M2494.35 629.474 2404.15 704.291 2424.49 728.819 2334.75 720.454 2343.11 630.709 2363.46 655.236 2453.66 580.419Z" stroke="#385D8A" stroke-width="9.16667" stroke-miterlimit="8" fill="#4F81BD" fill-rule="evenodd"/></g></svg>